<?xml version="1.0" encoding="UTF-8" standalone="no"?>
<!-- Created with Inkscape (http://www.inkscape.org/) -->

<svg
   xmlns:dc="http://purl.org/dc/elements/1.1/"
   xmlns:cc="http://creativecommons.org/ns#"
   xmlns:rdf="http://www.w3.org/1999/02/22-rdf-syntax-ns#"
   xmlns:svg="http://www.w3.org/2000/svg"
   xmlns="http://www.w3.org/2000/svg"
   xmlns:sodipodi="http://sodipodi.sourceforge.net/DTD/sodipodi-0.dtd"
   xmlns:inkscape="http://www.inkscape.org/namespaces/inkscape"
   id="svg2"
   version="1.1"
   inkscape:version="0.91 r13725"
   xml:space="preserve"
   width="800"
   height="151"
   viewBox="0 0 800 151"
   sodipodi:docname="Logo Prévessin Moëns.svg"><metadata
     id="metadata8"><rdf:RDF><cc:Work
         rdf:about=""><dc:format>image/svg+xml</dc:format><dc:type
           rdf:resource="http://purl.org/dc/dcmitype/StillImage" /><dc:title></dc:title></cc:Work></rdf:RDF></metadata><defs
     id="defs6" /><sodipodi:namedview
     pagecolor="#ffffff"
     bordercolor="#666666"
     borderopacity="1"
     objecttolerance="10"
     gridtolerance="10"
     guidetolerance="10"
     inkscape:pageopacity="0"
     inkscape:pageshadow="2"
     inkscape:window-width="1280"
     inkscape:window-height="691"
     id="namedview4"
     showgrid="false"
     inkscape:zoom="0.95149184"
     inkscape:cx="448.69442"
     inkscape:cy="59.641853"
     inkscape:window-x="0"
     inkscape:window-y="1"
     inkscape:window-maximized="1"
     inkscape:current-layer="g10" /><g
     id="g10"
     inkscape:groupmode="layer"
     inkscape:label="Logo Prévessin Moëns"
     transform="matrix(1.25,0,0,-1.25,0,151.00003)"><g
       id="g7712"
       transform="matrix(3.5868135,0,0,3.5868135,-1224.6003,-99.21626)"><g
         id="g7666"><path
           d="m 393.6828,54.1512 c 0,2.067 -1.443,3.199 -3.159,3.199 -0.449,0 -0.8,-0.079 -1.014,-0.137 l 0,-5.948 c 0.39,0 0.916,-0.312 1.735,-0.312 1.716,0 2.438,1.521 2.438,3.198 m -1.736,-4.037 c -1.326,0 -2.008,0.546 -2.437,0.566 l 0,-4.389 c 0,-0.897 0.409,-1.17 1.189,-1.267 l 0.839,-0.098 0,-0.566 c 0,0 -1.443,0.059 -3.004,0.059 -1.404,0 -2.672,-0.059 -2.672,-0.059 l 0,0.566 0.507,0.098 c 0.839,0.156 1.268,0.78 1.268,1.911 l 0,9.147 c 0,0.897 -0.331,1.15 -1.131,1.268 l -0.644,0.097 0,0.566 c 0,0 1.561,-0.059 2.575,-0.059 0.468,0 2.184,0.059 2.672,0.059 2.379,0 4.583,-1.346 4.583,-3.842 0,-2.887 -2.107,-4.057 -3.745,-4.057"
           style="fill:#283583;fill-opacity:1;fill-rule:nonzero;stroke:none"
           id="path1036"
           inkscape:connector-curvature="0" /><path
           d="m 401.3867,44.8872 0,-0.527 c 0,0 -0.995,0.059 -2.516,0.059 -1.404,0 -2.418,-0.059 -2.418,-0.059 l 0,0.527 0.546,0.078 c 0.585,0.078 1.034,0.566 1.034,1.307 l 0,4.661 c 0,0.839 -0.332,1.17 -1.463,1.17 l -0.117,0.429 c 1.814,0.176 3.257,0.897 3.257,0.897 l 0,-1.56 c 0.351,0.078 1.345,1.58 2.594,1.58 0.858,0 1.384,-0.468 1.384,-1.229 0,-0.663 -0.448,-1.092 -1.072,-1.092 -0.195,0 -0.371,0.039 -0.566,0.098 0,0 0.059,0.175 0.059,0.39 0,0.312 -0.195,0.585 -0.702,0.585 -0.644,0 -1.288,-0.761 -1.697,-0.878 l 0,-5.207 c 0,-0.917 0.136,-1.092 0.76,-1.151 l 0.917,-0.078 z"
           style="fill:#283583;fill-opacity:1;fill-rule:nonzero;stroke:none"
           id="path1038"
           inkscape:connector-curvature="0" /><path
           d="m 410.1046,58.6954 c 0.449,0 0.78,-0.332 0.78,-0.819 0,-1.248 -2.028,-3.004 -2.906,-3.472 l -0.175,0.176 2.067,4.076 c 0.059,0.019 0.156,0.039 0.234,0.039 m 0.039,-7.938 c 0,0 0.02,0.137 0.02,0.293 0,1.209 -0.702,1.716 -1.775,1.716 -1.17,0 -2.204,-0.897 -2.477,-2.243 l 4.232,0.234 z m 1.404,-0.78 -5.714,0 c 0,0 -0.039,-0.312 -0.039,-0.858 0,-2.438 1.229,-3.803 3.257,-3.803 1.151,0 1.872,0.273 2.457,0.585 l 0.156,-0.37 c -0.799,-0.898 -1.931,-1.483 -3.432,-1.483 -2.77,0 -4.155,1.99 -4.155,4.486 0,2.496 1.814,4.915 4.72,4.915 2.048,0 3.062,-1.171 3.062,-3.199 l -0.312,-0.273 z"
           style="fill:#283583;fill-opacity:1;fill-rule:nonzero;stroke:none"
           id="path1040"
           inkscape:connector-curvature="0" /><path
           d="m 416.287,52.6104 -0.39,-0.078 c -0.488,-0.098 -0.663,-0.312 -0.663,-0.624 0,-0.117 0.019,-0.234 0.058,-0.351 l 1.814,-5.344 2.107,5.383 c 0.078,0.214 0.117,0.351 0.117,0.468 0,0.253 -0.176,0.39 -0.566,0.448 l -0.585,0.098 0,0.527 c 0,0 0.858,-0.059 2.067,-0.059 0.917,0 1.444,0.059 1.444,0.059 l 0,-0.527 -0.371,-0.059 c -0.761,-0.117 -1.209,-0.702 -1.521,-1.501 l -2.711,-7.002 -0.8,0 -2.672,7.255 c -0.312,0.878 -0.546,1.151 -1.15,1.248 l -0.371,0.059 0,0.527 c 0,0 0.858,-0.059 2.106,-0.059 1.268,0 2.087,0.059 2.087,0.059 l 0,-0.527 z"
           style="fill:#283583;fill-opacity:1;fill-rule:nonzero;stroke:none"
           id="path1042"
           inkscape:connector-curvature="0" /><path
           d="m 427.6183,50.7578 c 0,0 0.02,0.137 0.02,0.293 0,1.209 -0.703,1.716 -1.775,1.716 -1.17,0 -2.204,-0.897 -2.477,-2.243 l 4.232,0.234 z m 1.404,-0.78 -5.714,0 c 0,0 -0.039,-0.312 -0.039,-0.858 0,-2.438 1.229,-3.803 3.257,-3.803 1.151,0 1.872,0.273 2.457,0.585 l 0.156,-0.371 c -0.799,-0.897 -1.931,-1.482 -3.432,-1.482 -2.77,0 -4.155,1.989 -4.155,4.486 0,2.496 1.814,4.914 4.72,4.914 2.048,0 3.062,-1.17 3.062,-3.198 l -0.312,-0.273 z"
           style="fill:#283583;fill-opacity:1;fill-rule:nonzero;stroke:none"
           id="path1044"
           inkscape:connector-curvature="0" /><path
           d="m 435.634,50.6993 -0.566,0 c 0,0.975 -0.565,2.087 -1.95,2.087 -1.033,0 -1.541,-0.702 -1.541,-1.365 0,-2.029 4.486,-1.795 4.486,-4.74 0,-1.716 -1.404,-2.633 -3.257,-2.633 -1.248,0 -1.716,0.41 -2.594,0.41 0,0 0,0.156 -0.097,2.613 l 0.507,0 c 0.234,-1.423 1.111,-2.223 2.301,-2.223 0.995,0 1.736,0.507 1.736,1.326 0,2.107 -4.388,1.736 -4.388,4.72 0,1.365 1.131,2.555 3.081,2.555 0.956,0 1.697,-0.39 2.399,-0.39 l -0.117,-2.36 z"
           style="fill:#283583;fill-opacity:1;fill-rule:nonzero;stroke:none"
           id="path1046"
           inkscape:connector-curvature="0" /><path
           d="m 442.4016,50.6993 -0.566,0 c 0,0.975 -0.565,2.087 -1.95,2.087 -1.034,0 -1.541,-0.702 -1.541,-1.365 0,-2.029 4.486,-1.795 4.486,-4.74 0,-1.716 -1.404,-2.633 -3.257,-2.633 -1.248,0 -1.716,0.41 -2.594,0.41 0,0 0,0.156 -0.097,2.613 l 0.507,0 c 0.234,-1.423 1.111,-2.223 2.301,-2.223 0.995,0 1.736,0.507 1.736,1.326 0,2.107 -4.388,1.736 -4.388,4.72 0,1.365 1.131,2.555 3.081,2.555 0.956,0 1.697,-0.39 2.399,-0.39 l -0.117,-2.36 z"
           style="fill:#283583;fill-opacity:1;fill-rule:nonzero;stroke:none"
           id="path1048"
           inkscape:connector-curvature="0" /><path
           d="m 446.0876,58.2858 c 0.644,0 1.151,-0.507 1.151,-1.151 0,-0.624 -0.507,-1.131 -1.151,-1.131 -0.624,0 -1.131,0.507 -1.131,1.131 0,0.644 0.507,1.151 1.131,1.151 m 2.223,-13.925 c 0,0 -1.345,0.058 -2.203,0.058 -0.898,0 -2.419,-0.058 -2.419,-0.058 l 0,0.526 0.527,0.078 c 0.585,0.078 1.033,0.566 1.033,1.307 l 0,4.661 c 0,0.839 -0.331,1.171 -1.462,1.171 l -0.098,0.429 c 1.794,0.175 3.238,0.897 3.238,0.897 l 0,-7.314 c 0,-0.916 0.156,-1.073 0.76,-1.151 l 0.624,-0.078 0,-0.526 z"
           style="fill:#283583;fill-opacity:1;fill-rule:nonzero;stroke:none"
           id="path1050"
           inkscape:connector-curvature="0" /><path
           d="m 459.35,44.8872 0,-0.527 c 0,0 -1.287,0.059 -2.145,0.059 -0.956,0 -2.341,-0.059 -2.341,-0.059 l 0,0.527 0.41,0.078 c 0.585,0.117 1.033,0.566 1.033,1.307 l 0,4.388 c 0,1.053 -0.526,1.599 -1.54,1.599 -1.034,0 -1.775,-0.663 -2.516,-0.799 l 0,-5.344 c 0,-0.917 0.136,-1.092 0.76,-1.151 l 0.624,-0.078 0,-0.527 c 0,0 -1.345,0.059 -2.223,0.059 -0.877,0 -2.418,-0.059 -2.418,-0.059 l 0,0.527 0.546,0.078 c 0.585,0.078 1.034,0.566 1.034,1.307 l 0,4.661 c 0,0.839 -0.332,1.17 -1.463,1.17 l -0.117,0.429 c 1.814,0.176 3.257,0.897 3.257,0.897 l 0,-1.423 c 0.468,0.136 1.638,1.443 3.159,1.443 1.736,0 2.555,-1.131 2.555,-2.574 l 0,-4.759 c 0,-0.917 0.156,-1.073 0.78,-1.151 l 0.605,-0.078 z"
           style="fill:#283583;fill-opacity:1;fill-rule:nonzero;stroke:none"
           id="path1052"
           inkscape:connector-curvature="0" /><path
           d="m 465.3568,49.685 -5.305,-1.092 -0.234,0.331 c 0.858,0.663 2.848,1.873 4.564,1.873 0.702,0 1.014,-0.39 1.014,-0.878 0,-0.078 -0.019,-0.195 -0.039,-0.234"
           style="fill:#283583;fill-opacity:1;fill-rule:nonzero;stroke:none"
           id="path1054"
           inkscape:connector-curvature="0" /><path
           d="m 468.7502,55.9065 c 0.059,0.858 -0.429,1.326 -1.092,1.443 l -0.585,0.098 0,0.565 c 0,0 1.794,-0.058 3.471,-0.058 0.039,-0.429 0.078,-0.741 0.351,-1.326 l 4.369,-9.498 4.135,9.01 c 0.546,1.19 0.546,1.814 0.546,1.814 1.911,0 3.296,0.058 3.296,0.058 l 0,-0.565 -0.527,-0.117 c -0.643,-0.137 -1.151,-0.566 -1.092,-1.268 l 0.839,-9.634 c 0.078,-0.976 0.487,-1.268 1.443,-1.405 l 0.663,-0.097 0,-0.566 c 0,0 -1.833,0.059 -3.062,0.059 -1.287,0 -3.023,-0.059 -3.023,-0.059 l 0,0.566 0.507,0.097 c 1.014,0.195 1.56,1.093 1.463,2.516 l -0.527,7.567 -4.778,-10.843 -0.585,-0.078 -5.012,10.785 -0.566,-7.704 c -0.078,-1.053 -0.195,-2.048 1.268,-2.243 l 0.702,-0.097 0,-0.566 c 0,0 -1.151,0.059 -2.711,0.059 -1.092,0 -2.282,-0.059 -2.282,-0.059 l 0,0.566 0.507,0.097 c 1.131,0.195 1.58,1.366 1.677,2.789 l 0.605,8.094 z"
           style="fill:#283583;fill-opacity:1;fill-rule:nonzero;stroke:none"
           id="path1056"
           inkscape:connector-curvature="0" /><path
           d="m 492.1349,48.5734 c 0,2.652 -1.482,4.095 -3.023,4.095 -1.833,0 -2.594,-1.599 -2.594,-3.744 0,-2.652 1.482,-4.115 3.023,-4.115 1.853,0 2.594,1.619 2.594,3.764 m 1.814,0.39 c 0,-2.496 -1.794,-4.915 -4.915,-4.915 -2.379,0 -4.33,1.658 -4.33,4.486 0,2.496 1.794,4.915 4.935,4.915 2.34,0 4.31,-1.678 4.31,-4.486"
           style="fill:#283583;fill-opacity:1;fill-rule:nonzero;stroke:none"
           id="path1058"
           inkscape:connector-curvature="0" /><path
           d="m 500.9697,57.2522 c 0.566,0 1.034,-0.468 1.034,-1.014 0,-0.546 -0.468,-1.034 -1.034,-1.034 -0.546,0 -1.014,0.488 -1.014,1.034 0,0.546 0.468,1.014 1.014,1.014 m -0.195,-6.494 c 0,0 0.019,0.136 0.019,0.292 0,1.209 -0.702,1.716 -1.774,1.716 -1.17,0 -2.204,-0.897 -2.477,-2.242 l 4.232,0.234 z m -3.393,6.494 c 0.546,0 1.014,-0.468 1.014,-1.014 0,-0.546 -0.468,-1.034 -1.014,-1.034 -0.566,0 -1.034,0.488 -1.034,1.034 0,0.546 0.468,1.014 1.034,1.014 m 4.797,-7.275 -5.714,0 c 0,0 -0.039,-0.312 -0.039,-0.858 0,-2.438 1.229,-3.803 3.257,-3.803 1.15,0 1.872,0.273 2.457,0.585 l 0.156,-0.37 c -0.799,-0.897 -1.931,-1.483 -3.432,-1.483 -2.77,0 -4.154,1.99 -4.154,4.486 0,2.497 1.813,4.915 4.719,4.915 2.048,0 3.062,-1.17 3.062,-3.198 l -0.312,-0.274 z"
           style="fill:#283583;fill-opacity:1;fill-rule:nonzero;stroke:none"
           id="path1060"
           inkscape:connector-curvature="0" /><path
           d="m 513.4516,44.8872 0,-0.527 c 0,0 -1.287,0.059 -2.145,0.059 -0.956,0 -2.341,-0.059 -2.341,-0.059 l 0,0.527 0.41,0.078 c 0.585,0.117 1.034,0.566 1.034,1.307 l 0,4.388 c 0,1.053 -0.527,1.599 -1.541,1.599 -1.034,0 -1.775,-0.663 -2.516,-0.799 l 0,-5.344 c 0,-0.917 0.136,-1.092 0.761,-1.151 l 0.624,-0.078 0,-0.527 c 0,0 -1.346,0.059 -2.224,0.059 -0.877,0 -2.418,-0.059 -2.418,-0.059 l 0,0.527 0.546,0.078 c 0.585,0.078 1.034,0.566 1.034,1.307 l 0,4.661 c 0,0.839 -0.332,1.17 -1.463,1.17 l -0.117,0.429 c 1.814,0.176 3.257,0.897 3.257,0.897 l 0,-1.423 c 0.468,0.136 1.638,1.443 3.16,1.443 1.735,0 2.554,-1.131 2.554,-2.574 l 0,-4.759 c 0,-0.917 0.156,-1.073 0.78,-1.151 l 0.605,-0.078 z"
           style="fill:#283583;fill-opacity:1;fill-rule:nonzero;stroke:none"
           id="path1062"
           inkscape:connector-curvature="0" /><path
           d="m 519.4197,50.6993 -0.566,0 c 0,0.975 -0.565,2.087 -1.95,2.087 -1.034,0 -1.541,-0.702 -1.541,-1.365 0,-2.029 4.486,-1.795 4.486,-4.74 0,-1.716 -1.404,-2.633 -3.257,-2.633 -1.248,0 -1.716,0.41 -2.594,0.41 0,0 0,0.156 -0.098,2.613 l 0.508,0 c 0.234,-1.423 1.111,-2.223 2.301,-2.223 0.995,0 1.736,0.507 1.736,1.326 0,2.107 -4.389,1.736 -4.389,4.72 0,1.365 1.132,2.555 3.082,2.555 0.956,0 1.697,-0.39 2.399,-0.39 l -0.117,-2.36 z"
           style="fill:#283583;fill-opacity:1;fill-rule:nonzero;stroke:none"
           id="path1064"
           inkscape:connector-curvature="0" /></g><g
         id="g7644"><path
           d="m 358.4531,61.3154 -1.798,0 -15.233,0 0,-21.984 c 0,0 -0.543,-9.024 9.974,-9.838 5.883,-0.055 6.954,-1.223 7.149,-1.665 l 0.01,-0.167 0,33.654 -0.102,0 z"
           style="fill:#283583;fill-opacity:1;fill-rule:nonzero;stroke:none"
           id="path1066"
           inkscape:connector-curvature="0" /><path
           d="m 358.5501,61.3154 1.798,0 15.233,0 0,-21.984 c 0,0 0.542,-9.024 -9.975,-9.838 -5.882,-0.055 -6.954,-1.223 -7.148,-1.665 l -0.01,-0.167 0,33.654 0.102,0 z"
           style="fill:#bd1d1d;fill-opacity:1;fill-rule:nonzero;stroke:none"
           id="path1068"
           inkscape:connector-curvature="0" /><path
           d="m 375.7213,61.3154 -17.268,0 -1.798,0 -15.233,0 0,-21.984 c 0,0 -0.543,-9.024 9.974,-9.838 5.883,-0.055 6.954,-1.224 7.149,-1.665 l 0.01,-0.167 c 0,0 -0.002,0.035 0.016,0.096 0.015,-0.048 0.017,-0.08 0.017,-0.092 l 0,0.139 c 0.167,0.421 1.167,1.633 7.159,1.689 10.517,0.814 9.974,9.838 9.974,9.838 l 0,21.984 z m -0.407,-0.407 0,-21.577 0,-0.012 10e-4,-0.012 c 0.001,-0.021 0.112,-2.203 -1.016,-4.438 -1.5,-2.97 -4.383,-4.642 -8.57,-4.969 -4.292,-0.042 -6.173,-0.682 -6.986,-1.298 l -0.171,0.57 -0.169,-0.559 c -1.298,1.003 -4.402,1.262 -6.989,1.287 -4.187,0.327 -7.07,1.999 -8.569,4.969 -1.129,2.235 -1.018,4.417 -1.017,4.438 l 10e-4,0.012 0,0.012 0,21.577 14.826,0 1.798,0 16.861,0"
           style="fill:#010202;fill-opacity:1;fill-rule:nonzero;stroke:none"
           id="path1070"
           inkscape:connector-curvature="0" /><path
           inkscape:connector-curvature="0"
           id="path1074"
           style="fill:none;stroke:#010202;stroke-width:0.40700001;stroke-linecap:butt;stroke-linejoin:miter;stroke-miterlimit:10;stroke-dasharray:none;stroke-opacity:1"
           d="m 358.6227,28.3058 0,32.772" /><g
           id="g7633"><path
             inkscape:connector-curvature="0"
             id="path1076"
             style="fill:#feeb17;fill-opacity:1;fill-rule:nonzero;stroke:none"
             d="m 371.243,51.8162 -0.492,0 0,-1.577 -0.848,0 0,1.56 -0.509,0 0,0.916 0.526,0 0,1.679 0.831,-0.017 0,-1.645 0.492,0 0,-0.916 z m 0.797,-0.899 0,0.204 0.187,0 0,2.815 -0.696,0 0,0.526 0.526,0 0,1.459 -1.34,0 0,-0.696 -0.916,0 0,0.645 -1.374,0 0,-2.256 -0.729,0 0,4.326 c 0,0 0.034,0.644 -0.577,0.644 l -0.933,0 c 0,0 -0.458,-0.034 -0.458,-0.712 l 0.034,-14.741 1.934,0 0,7.498 0.644,0 0,-1.764 1.73,0 0,0.712 0.645,0 0,-0.747 1.391,0 0,1.595 -0.56,0 0,0.492 0.492,0 z" /><path
             inkscape:connector-curvature="0"
             id="path1078"
             style="fill:#feeb17;fill-opacity:1;fill-rule:nonzero;stroke:none"
             d="m 364.7463,42.7921 3.85,0 0,-0.679 -3.847,0 -0.003,0.679 z" /><path
             inkscape:connector-curvature="0"
             id="path1080"
             style="fill:#feeb17;fill-opacity:1;fill-rule:nonzero;stroke:none"
             d="m 364.7463,35.6676 3.85,0 0,-0.679 -3.847,0 -0.003,0.679 z" /><path
             inkscape:connector-curvature="0"
             id="path1082"
             style="fill:#feeb17;fill-opacity:1;fill-rule:nonzero;stroke:none"
             d="m 362.7248,36.9766 0,3.851 0.679,0 0,-3.848 -0.679,-0.003 z" /><path
             inkscape:connector-curvature="0"
             id="path1084"
             style="fill:#feeb17;fill-opacity:1;fill-rule:nonzero;stroke:none"
             d="m 369.9057,36.9766 0,3.851 0.679,0 0,-3.848 -0.679,-0.003 z" /><path
             inkscape:connector-curvature="0"
             id="path1086"
             style="fill:#feeb17;fill-opacity:1;fill-rule:nonzero;stroke:none"
             d="m 366.5672,36.4705 c -0.651,1.864 -2.37,2.448 -2.37,2.459 2.033,0.787 2.46,2.393 2.46,2.393 0.954,-2.112 2.437,-2.482 2.437,-2.482 -1.718,-0.517 -2.527,-2.37 -2.527,-2.37 m 1.385,5.372 -2.454,0 c -0.599,-1.437 -1.764,-1.64 -1.764,-1.64 l 0,-2.443 c 1.346,-0.746 1.628,-1.786 1.628,-1.786 0,0 2.466,-0.012 2.466,0 0.621,1.413 1.753,1.617 1.753,1.617 l 0,2.465 c -1.369,0.554 -1.629,1.787 -1.629,1.787" /><path
             inkscape:connector-curvature="0"
             id="path1088"
             style="fill:#feeb17;fill-opacity:1;fill-rule:nonzero;stroke:none"
             d="m 362.4224,39.8632 0,-1.9 c 0,0 -1.719,0.927 0,1.9" /><path
             inkscape:connector-curvature="0"
             id="path1090"
             style="fill:#feeb17;fill-opacity:1;fill-rule:nonzero;stroke:none"
             d="m 370.92,39.8632 0,-1.9 c 0,0 1.719,0.927 0,1.9" /><path
             inkscape:connector-curvature="0"
             id="path1092"
             style="fill:#feeb17;fill-opacity:1;fill-rule:nonzero;stroke:none"
             d="m 367.5477,34.6587 -1.9,0 c 0,0 0.927,-1.719 1.9,0" /></g><g
           id="g7626"><path
             inkscape:connector-curvature="0"
             id="path1094"
             style="fill:#fbea1c;fill-opacity:1;fill-rule:nonzero;stroke:none"
             d="m 347.7919,52.6134 c 0,0 -2.748,3.342 1.187,4.784 3.475,1.272 5.276,-3.376 2.511,-5.106" /><path
             inkscape:connector-curvature="0"
             id="path1096"
             style="fill:#fbea1c;fill-opacity:1;fill-rule:nonzero;stroke:none"
             d="m 351.4729,51.2563 c 0,0 1.052,1.612 2.544,0.797 1.493,-0.814 1.453,-2.6 -0.412,-3.211" /><path
             inkscape:connector-curvature="0"
             id="path1098"
             style="fill:#ffffff;fill-opacity:1;fill-rule:nonzero;stroke:none"
             d="m 355.8832,39.1875 -0.003,0.687 0.345,0.105 0.064,0.348 -0.524,0.685 0.622,0.705 -0.201,0.352 -0.306,0.044 0,3.885 -0.271,0.271 c 0.186,1.679 1.187,0.22 1.187,0.237 0.119,1.595 -1.046,1.366 -1.046,1.366 -0.22,1.001 -0.441,1.179 -0.441,1.179 -0.288,-0.272 -0.413,-1.188 -0.43,-1.188 l -0.35,-0.107 c -0.034,0.271 -1.058,1.312 -1.058,1.312 0.374,0.152 0.408,0.542 0.441,0.56 0.357,0.22 0.187,0.661 0.187,0.644 0.221,1.154 -0.899,1.154 -1.543,1.188 -0.645,0.033 -0.685,-0.69 -0.685,-0.69 0,0 -0.316,0.695 -0.667,0.673 0.797,1.594 -0.209,1.323 -0.124,1.492 0.084,0.17 0,0.526 0.034,0.713 0.034,0.186 0.068,0.644 0.068,0.644 l 0,0.306 0.22,0.237 -0.119,0.373 0.628,1.154 c -0.475,-0.492 -0.865,-0.39 -0.865,-0.39 l -0.435,-0.603 -0.163,0.157 c 0,0 -0.072,0.108 0.237,0.38 0.377,0.33 -0.25,0.744 -0.742,0.676 -0.492,-0.068 -0.543,-0.526 -0.543,-0.526 l 0.153,-0.627 -0.068,-0.136 c 0,0 -0.593,-0.034 -0.61,-0.034 0.118,1.103 -0.967,0.967 -0.967,0.967 l 0.78,-1.391 c 0,0 -1.052,-0.933 -0.797,-3.053 l -0.441,-0.899 c 0,0 -1.171,-0.713 -1.493,-3.037 0,0 0.102,1.035 -0.356,1.273 -0.56,-0.407 -0.492,-1.154 -0.475,-1.137 -1.408,-0.136 -1.171,-1.408 -1.171,-1.425 1.12,1.493 1.171,-0.288 1.171,-0.288 l -0.238,-0.238 0,-3.884 -0.471,-0.156 -0.052,-0.404 0.636,-0.619 -0.562,-0.563 0.036,-0.426 0.413,-0.156 0,-4.699 0.272,-0.271 0.712,0 0.238,0.237 0,0.385 0,-0.028 c 0,0 0.899,-0.339 1.255,-0.492 0.356,-0.153 1.883,-0.306 2.985,0.135 1.103,0.442 1.476,0.34 1.51,0.255 0.034,-0.085 0.984,-0.288 1.119,-0.424 0.136,-0.136 1.951,-0.068 1.951,-0.068 l 0.713,0 0.237,0.237 0,4.784" /><path
             d="m 347.7947,52.6134 c 0,0 -2.748,3.342 1.187,4.784 3.475,1.272 5.276,-3.376 2.511,-5.106 m 0,-1.035 c 0,0 1.052,1.611 2.544,0.797 1.493,-0.814 1.454,-2.601 -0.412,-3.211 m -7.713,-0.996 c 0,0 0.102,1.035 -0.356,1.273 -0.56,-0.407 -0.492,-1.154 -0.475,-1.137 -1.408,-0.136 -1.17,-1.408 -1.17,-1.425 1.119,1.493 1.17,-0.288 1.17,-0.288 0,0 0.712,-0.017 0.712,0 0.306,1.645 0.984,0.153 0.984,0.153 0,0 0.73,1.119 -0.865,1.424 0.322,2.324 1.493,3.037 1.493,3.037 l 0.441,0.899 c -0.254,2.12 0.797,3.053 0.797,3.053 l -0.78,1.391 c 0,0 1.086,0.136 0.967,-0.967 0.017,0 0.611,0.034 0.611,0.034 l 0.067,0.136 -0.152,0.627 c 0,0 0.051,0.458 0.543,0.526 0.492,0.068 1.118,-0.346 0.742,-0.676 -0.31,-0.272 -0.238,-0.38 -0.238,-0.38 l 0.164,-0.157 0.434,0.603 c 0,0 0.39,-0.102 0.865,0.39 l -0.628,-1.154 0.119,-0.373 -0.22,-0.237 c 0,0 -0.865,0.407 -1.883,0.237 m -4.173,-8.566 -0.237,-0.238 0,-3.944 m 0.949,4.182 0.272,-0.271 0,-3.885 m 0,-2.239 0,-4.784 -0.237,-0.237 -0.713,0 -0.271,0.271 0,4.699 m 10.991,2.29 0,3.885 -0.271,0.271 -0.712,0 -0.238,-0.238 0,-3.944 m 1.221,-2.213 0,-4.784 -0.237,-0.237 -0.712,0 -0.272,0.271 0,4.699 m -8.549,-4.376 c 0,0 0.899,-0.339 1.255,-0.492 0.356,-0.153 1.883,-0.306 2.986,0.135 1.102,0.442 1.475,0.34 1.509,0.255 0.034,-0.085 0.984,-0.288 1.12,-0.424 0.136,-0.136 1.951,-0.068 1.951,-0.068 m -0.402,12.903 c -0.034,0.271 -1.057,1.312 -1.057,1.312 0.373,0.152 0.407,0.543 0.441,0.56 0.356,0.22 0.186,0.661 0.186,0.644 0.221,1.154 -0.899,1.154 -1.543,1.188 -0.645,0.033 -0.832,-1.239 -0.832,-1.239 0,0 0.148,-0.215 0.102,-0.441 -0.045,-0.226 -0.113,-0.328 -0.011,-0.576 0.102,-0.249 0.441,-1.21 1.187,-0.453 m -1.82,5.847 0,-0.306 -0.831,0.238 m -0.509,0.068 -1.086,-0.289 0.221,-0.424 -0.509,-0.322 0.203,-0.543 -0.254,-0.797 0.204,-0.17 -0.272,-1.102 m 1.578,2.256 -0.034,-0.441 -0.272,-0.119 m 0.848,1.086 0.424,0.067 m -1.255,0.034 -0.458,0.034 m -0.034,-0.339 c 0,0 0.289,-0.153 0.424,-0.085 m 0.764,-0.051 c 0,0 0.254,-0.152 0.39,-0.068 m -1.391,-0.915 c 0,0 0.356,-0.187 0.627,-0.136 m 1.222,2.018 c 0,0 -0.034,-0.458 -0.068,-0.644 -0.034,-0.187 0.051,-0.543 -0.034,-0.713 -0.085,-0.169 0.95,0.068 0.153,-1.526 m -0.153,1.526 c -0.068,-0.135 -0.305,-0.373 -0.305,-0.373 -0.079,-0.237 -0.634,-0.69 -1.131,-0.78 -0.498,-0.091 -0.781,0.475 -0.781,0.475 0,0 -0.226,0.565 -0.192,0.763 m 6.226,-6.751 c 0,0 0.051,1.306 -0.916,0.22 0,0 -0.56,0.9 0.899,1.374 0.017,0 0.141,0.916 0.429,1.188 0,0 0.221,-0.178 0.441,-1.179 0,0 1.165,0.229 1.046,-1.366 0,-0.017 -1,1.442 -1.187,-0.237 m -7.22,4.925 c 0,0 0.531,-0.532 1.006,-0.498 0.475,0.034 0.961,0.498 1.119,0.34 0.159,-0.159 -0.293,-0.984 0.125,-1.414 0.418,-0.43 1.346,-1.267 1.187,-1.425 -0.158,-0.158 -1.945,0.712 -1.956,0.328 -0.011,-0.385 1.153,-0.712 1.38,-0.905 0.226,-0.192 1.063,-0.791 0.814,-1.221 -0.249,-0.43 -0.735,-0.712 -0.894,-0.712 -0.158,0 -0.644,-0.08 -1.017,-0.566 -0.373,-0.486 -0.464,-0.305 -0.272,-0.497 0,-0.012 -0.35,-0.306 -0.09,-0.509 0.022,-0.012 -0.611,-0.86 -0.735,-0.95 -0.125,-0.091 -0.272,-0.95 0.135,-0.758 0.408,0.192 0.645,0.611 0.645,0.611 l 0.554,0 c 0,0 0.204,-0.34 -0.124,-0.475 -0.328,-0.136 -0.814,-0.441 -0.656,-0.543 0.158,-0.102 0.407,-0.486 0.972,-0.023 0.566,0.464 0.351,0.08 0.487,0.475 0.135,0.396 0.746,0.6 0.746,0.6 0,0 0.475,0.135 0.633,0.339 0.159,0.204 0.17,-0.226 0.668,-0.17 0.497,0.057 1.549,-0.067 1.549,-0.067 m -2.624,3.189 0.803,-0.295 m 1.04,0.588 c 0,0 -0.463,-0.373 -0.802,-0.497 -0.34,-0.124 -0.882,-0.645 -0.43,-0.656 0.452,-0.011 0.69,0.045 0.938,0.17 0.249,0.124 1.154,0.395 1.154,1.164 m -4.105,-3.313 c 0,0 0.271,1.674 2.85,1.64 m -2.194,0.576 c 0,0 0.859,-0.35 0.871,-0.746 m -2.375,-0.859 0.463,-0.181 c 0,0 -0.203,-0.701 -0.418,-0.916 m 0.418,0.916 c 0,0 0.317,1.153 0.509,1.255 m -0.373,-2.171 c 0,0 0.419,0.316 0.52,0.384 0.102,0.068 0.634,-0.034 0.86,-0.022 0.226,0.011 0.249,-0.238 0.249,-0.238 m 0.509,0.305 c 0,0 1.583,0.068 1.809,0.374 0.226,0.305 0.316,0.554 0.316,0.554 m -2.646,5.383 c 0,0 0.204,-0.17 0.204,-0.227 m 0.35,-0.101 c 0,0 0.113,0.09 0.204,0.034 m -0.498,-0.057 -0.135,-0.181 0.226,-0.068 m -0.215,-0.192 c 0,0 0.215,-0.113 0.305,-0.057 m -2.25,3.088 0,-1.007 m 1.674,-0.249 c 0,0 -0.317,0.724 -0.668,0.702 -0.35,-0.023 -0.746,-1.391 -0.746,-1.391 m -3.78,-5.411 c 0,0 -0.237,-0.374 0,-0.679 0.238,-0.305 0.543,-0.831 0.619,-1.077 0.077,-0.246 0.467,-0.577 0.594,-0.695 0.127,-0.119 0.551,-2.265 0.551,-2.265 m 2.926,1.297 c 0,0 -0.491,-2.094 -1.187,-2.909 -0.695,-0.814 -1.841,-2.62 -1.841,-2.62 m 2.435,4.919 c -0.051,-0.034 -1.434,-2.163 -2.307,-2.468 m 3.765,1.501 c 0,0 0.017,-1.416 -0.415,-2.205 -0.433,-0.789 -0.102,-1.993 -0.102,-1.993 m 1.968,5.462 c -0.026,-0.026 -0.399,-0.848 -0.382,-1.315 0.017,-0.466 -0.068,-0.56 -0.322,-1.187 -0.255,-0.628 -0.212,-2.35 -0.831,-2.63"
             style="fill:none;stroke:#000000;stroke-width:0.13600001;stroke-linecap:butt;stroke-linejoin:miter;stroke-miterlimit:10;stroke-dasharray:none;stroke-opacity:1"
             id="path1102"
             inkscape:connector-curvature="0" /><path
             d="m 356.2622,41.4865 -1.5,-1.5 c -0.141,-0.141 -0.371,-0.141 -0.512,0 -0.141,0.141 -0.141,0.371 0,0.512 l 1.5,1.5 c 0.141,0.141 0.371,0.141 0.512,0 0.141,-0.141 0.141,-0.371 0,-0.512 z m -1.564,0.512 1.5,-1.5 c 0.141,-0.141 0.141,-0.371 0,-0.512 -0.14,-0.141 -0.371,-0.141 -0.512,0 l -1.5,1.5 c -0.141,0.141 -0.141,0.371 0,0.512 0.141,0.141 0.371,0.141 0.512,0 z m -8.167,-0.512 -1.5,-1.5 c -0.141,-0.141 -0.371,-0.141 -0.512,0 -0.141,0.141 -0.141,0.371 0,0.512 l 1.5,1.5 c 0.141,0.141 0.371,0.141 0.512,0 0.141,-0.141 0.141,-0.371 0,-0.512 z m -1.564,0.512 1.5,-1.5 c 0.141,-0.141 0.141,-0.371 0,-0.512 -0.14,-0.141 -0.371,-0.141 -0.512,0 l -1.5,1.5 c -0.141,0.141 -0.141,0.371 0,0.512 0.141,0.141 0.371,0.141 0.512,0 z"
             style="fill:none;stroke:#000000;stroke-width:0.15899999;stroke-linecap:butt;stroke-linejoin:miter;stroke-miterlimit:10;stroke-dasharray:none;stroke-opacity:1"
             id="path1106"
             inkscape:connector-curvature="0" /></g></g><g
         id="g7683"><path
           d="m 389.5563,37.1817 -0.155,0 c 0.028,0.184 0.041,0.344 0.041,0.482 0,0.22 -0.036,0.407 -0.11,0.561 -0.087,0.174 -0.214,0.31 -0.38,0.406 -0.166,0.096 -0.348,0.144 -0.546,0.144 -0.39,0 -0.767,-0.183 -1.13,-0.55 -0.364,-0.367 -0.659,-0.829 -0.885,-1.386 -0.226,-0.556 -0.339,-1.094 -0.339,-1.615 0,-0.455 0.089,-0.799 0.267,-1.033 0.178,-0.234 0.425,-0.351 0.742,-0.351 0.206,0 0.425,0.048 0.655,0.145 0.231,0.096 0.431,0.231 0.601,0.406 0.119,0.121 0.224,0.264 0.315,0.426 0.09,0.163 0.197,0.393 0.318,0.689 l 0.155,0 c -0.213,-0.78 -0.352,-1.345 -0.416,-1.693 l -0.155,0 c 0.014,0.101 0.02,0.181 0.02,0.24 0,0.12 -0.027,0.179 -0.082,0.179 -0.037,0 -0.086,-0.02 -0.148,-0.062 -0.168,-0.107 -0.308,-0.191 -0.422,-0.251 -0.113,-0.059 -0.245,-0.109 -0.394,-0.148 -0.149,-0.039 -0.321,-0.058 -0.516,-0.058 -0.523,0 -0.928,0.141 -1.215,0.423 -0.287,0.282 -0.43,0.694 -0.43,1.236 0,0.541 0.135,1.087 0.406,1.636 0.271,0.55 0.642,1.003 1.113,1.36 0.472,0.356 0.99,0.535 1.554,0.535 0.191,0 0.35,-0.021 0.479,-0.062 0.128,-0.041 0.232,-0.093 0.311,-0.153 0.079,-0.061 0.167,-0.142 0.263,-0.243 0.042,-0.041 0.077,-0.062 0.107,-0.062 0.083,0 0.175,0.14 0.279,0.42 l 0.148,0 c -0.156,-0.406 -0.306,-0.946 -0.451,-1.621"
           style="fill:#9d9d9c;fill-opacity:1;fill-rule:nonzero;stroke:none"
           id="path1108"
           inkscape:connector-curvature="0" /><path
           d="m 391.4188,36.9338 c -0.215,-0.305 -0.386,-0.687 -0.515,-1.146 -0.128,-0.459 -0.192,-0.9 -0.192,-1.322 0,-0.408 0.134,-0.612 0.402,-0.612 0.241,0 0.469,0.152 0.682,0.457 0.213,0.306 0.384,0.687 0.513,1.145 0.128,0.458 0.192,0.899 0.192,1.323 0,0.211 -0.032,0.366 -0.098,0.465 -0.065,0.098 -0.165,0.148 -0.301,0.148 -0.241,0 -0.468,-0.153 -0.683,-0.458 m -1.067,-0.921 c 0.164,0.426 0.401,0.786 0.711,1.079 0.309,0.294 0.67,0.441 1.081,0.441 0.3,0 0.536,-0.093 0.707,-0.279 0.171,-0.186 0.256,-0.461 0.256,-0.826 0,-0.369 -0.082,-0.767 -0.246,-1.192 -0.164,-0.426 -0.4,-0.786 -0.709,-1.081 -0.309,-0.295 -0.668,-0.442 -1.079,-0.442 -0.3,0 -0.537,0.093 -0.709,0.28 -0.172,0.187 -0.258,0.463 -0.258,0.828 0,0.369 0.082,0.767 0.246,1.192"
           style="fill:#9d9d9c;fill-opacity:1;fill-rule:nonzero;stroke:none"
           id="path1110"
           inkscape:connector-curvature="0" /><path
           d="m 394.386,33.8535 c 0.214,0 0.386,0.064 0.516,0.191 0.131,0.127 0.197,0.306 0.197,0.535 0,0.149 -0.029,0.296 -0.085,0.441 -0.056,0.144 -0.151,0.308 -0.284,0.492 -0.112,0.154 -0.196,0.272 -0.249,0.354 -0.054,0.083 -0.103,0.182 -0.145,0.296 -0.042,0.115 -0.063,0.239 -0.063,0.372 0,0.195 0.048,0.368 0.146,0.52 0.097,0.151 0.23,0.269 0.397,0.352 0.168,0.084 0.351,0.126 0.551,0.126 0.243,0 0.448,-0.045 0.613,-0.136 0.165,-0.09 0.247,-0.249 0.247,-0.476 0,-0.051 -0.011,-0.104 -0.034,-0.161 -0.023,-0.056 -0.059,-0.104 -0.108,-0.144 -0.05,-0.04 -0.111,-0.06 -0.184,-0.06 -0.081,0 -0.148,0.027 -0.202,0.082 -0.054,0.055 -0.081,0.126 -0.081,0.214 0,0.151 0.067,0.308 0.2,0.471 -0.094,0.055 -0.212,0.083 -0.355,0.083 -0.179,0 -0.325,-0.06 -0.44,-0.179 -0.115,-0.12 -0.172,-0.282 -0.172,-0.489 0,-0.124 0.02,-0.23 0.062,-0.318 0.041,-0.089 0.101,-0.188 0.179,-0.3 0.078,-0.111 0.138,-0.199 0.182,-0.263 0.14,-0.218 0.244,-0.404 0.313,-0.558 0.069,-0.153 0.103,-0.313 0.103,-0.478 0,-0.213 -0.054,-0.404 -0.165,-0.573 -0.11,-0.169 -0.257,-0.3 -0.442,-0.394 -0.185,-0.094 -0.386,-0.141 -0.604,-0.141 -0.271,0 -0.497,0.057 -0.68,0.172 -0.182,0.115 -0.273,0.29 -0.273,0.527 0,0.082 0.022,0.156 0.067,0.22 0.044,0.064 0.114,0.096 0.208,0.096 0.105,0 0.183,-0.042 0.234,-0.127 0.05,-0.085 0.076,-0.191 0.076,-0.317 0,-0.082 -0.016,-0.204 -0.048,-0.365 0.087,-0.043 0.195,-0.065 0.323,-0.065"
           style="fill:#9d9d9c;fill-opacity:1;fill-rule:nonzero;stroke:none"
           id="path1112"
           inkscape:connector-curvature="0" /><path
           d="m 401.7471,34.4386 c -0.165,-0.484 -0.45,-0.726 -0.854,-0.726 -0.208,0 -0.354,0.064 -0.437,0.192 -0.039,0.062 -0.058,0.143 -0.058,0.241 0,0.129 0.039,0.314 0.117,0.555 l 0.667,2.016 c 0.049,0.154 0.073,0.278 0.073,0.372 0,0.147 -0.052,0.22 -0.155,0.22 -0.181,0 -0.38,-0.142 -0.594,-0.426 -0.215,-0.285 -0.432,-0.679 -0.652,-1.184 -0.22,-0.505 -0.433,-1.087 -0.637,-1.745 l 0.007,0.034 -0.048,-0.175 -0.637,0 0.881,2.904 c 0.048,0.15 0.073,0.27 0.073,0.362 0,0.154 -0.066,0.23 -0.197,0.23 -0.172,0 -0.364,-0.134 -0.576,-0.402 -0.213,-0.269 -0.422,-0.635 -0.63,-1.1 -0.208,-0.465 -0.391,-0.978 -0.549,-1.54 l -0.113,-0.454 -0.613,0 0.843,3.025 c 0.035,0.117 0.052,0.203 0.052,0.258 0,0.119 -0.05,0.179 -0.148,0.179 -0.106,0 -0.202,-0.056 -0.288,-0.167 -0.086,-0.111 -0.173,-0.295 -0.263,-0.552 l -0.093,-0.262 -0.134,0 0.179,0.513 c 0.165,0.484 0.448,0.726 0.85,0.726 0.273,0 0.41,-0.141 0.41,-0.423 0,-0.14 -0.035,-0.327 -0.104,-0.561 l -0.223,-0.888 c 0.188,0.461 0.368,0.828 0.54,1.101 0.172,0.273 0.346,0.47 0.521,0.59 0.176,0.121 0.366,0.181 0.57,0.181 0.307,0 0.461,-0.165 0.461,-0.495 0,-0.15 -0.031,-0.339 -0.093,-0.568 l -0.251,-0.933 c 0.197,0.491 0.382,0.88 0.556,1.168 0.173,0.288 0.35,0.498 0.53,0.63 0.18,0.132 0.38,0.198 0.6,0.198 0.175,0 0.301,-0.048 0.379,-0.143 0.078,-0.095 0.117,-0.223 0.117,-0.383 0,-0.159 -0.033,-0.338 -0.1,-0.537 l -0.685,-2.058 c -0.034,-0.111 -0.051,-0.2 -0.051,-0.269 0,-0.112 0.055,-0.169 0.165,-0.169 0.096,0 0.188,0.054 0.275,0.161 0.087,0.106 0.177,0.292 0.269,0.559 l 0.093,0.261 0.131,0 -0.176,-0.516 z"
           style="fill:#9d9d9c;fill-opacity:1;fill-rule:nonzero;stroke:none"
           id="path1114"
           inkscape:connector-curvature="0" /><path
           d="m 403.9846,36.9338 c -0.215,-0.305 -0.386,-0.687 -0.514,-1.146 -0.129,-0.459 -0.193,-0.9 -0.193,-1.322 0,-0.408 0.134,-0.612 0.402,-0.612 0.242,0 0.469,0.152 0.682,0.457 0.213,0.306 0.384,0.687 0.513,1.145 0.128,0.458 0.192,0.899 0.192,1.323 0,0.211 -0.032,0.366 -0.098,0.465 -0.065,0.098 -0.165,0.148 -0.301,0.148 -0.241,0 -0.468,-0.153 -0.683,-0.458 m -1.067,-0.921 c 0.164,0.426 0.401,0.786 0.711,1.079 0.31,0.294 0.67,0.441 1.081,0.441 0.3,0 0.536,-0.093 0.707,-0.279 0.171,-0.186 0.256,-0.461 0.256,-0.826 0,-0.369 -0.082,-0.767 -0.246,-1.192 -0.164,-0.426 -0.4,-0.786 -0.709,-1.081 -0.308,-0.295 -0.668,-0.442 -1.079,-0.442 -0.3,0 -0.537,0.093 -0.709,0.28 -0.172,0.187 -0.258,0.463 -0.258,0.828 0,0.369 0.082,0.767 0.246,1.192"
           style="fill:#9d9d9c;fill-opacity:1;fill-rule:nonzero;stroke:none"
           id="path1116"
           inkscape:connector-curvature="0" /><path
           d="m 407.4546,33.9706 c 0.082,-0.064 0.184,-0.096 0.303,-0.096 0.25,0 0.487,0.156 0.712,0.468 0.225,0.312 0.406,0.691 0.544,1.139 0.138,0.447 0.206,0.852 0.206,1.215 0,0.202 -0.028,0.354 -0.086,0.458 -0.057,0.103 -0.138,0.154 -0.244,0.154 -0.133,0 -0.287,-0.107 -0.463,-0.321 -0.175,-0.215 -0.352,-0.503 -0.53,-0.864 -0.178,-0.362 -0.335,-0.756 -0.473,-1.182 l -0.183,-0.644 c 0.06,-0.154 0.131,-0.263 0.214,-0.327 m 0.943,3.206 c 0.218,0.237 0.451,0.356 0.699,0.356 0.227,0 0.406,-0.084 0.536,-0.251 0.131,-0.168 0.197,-0.414 0.197,-0.74 0,-0.381 -0.084,-0.793 -0.253,-1.237 -0.169,-0.444 -0.41,-0.821 -0.725,-1.129 -0.314,-0.309 -0.677,-0.463 -1.087,-0.463 -0.129,0 -0.245,0.035 -0.348,0.106 -0.103,0.072 -0.179,0.172 -0.227,0.3 l -0.265,-0.926 c -0.018,-0.066 -0.028,-0.123 -0.028,-0.169 0,-0.123 0.052,-0.211 0.155,-0.263 0.103,-0.051 0.251,-0.077 0.444,-0.077 l -0.045,-0.148 c -0.055,0.002 -0.178,0.008 -0.369,0.017 -0.192,0.009 -0.383,0.014 -0.574,0.014 -0.151,0 -0.309,-0.005 -0.474,-0.014 -0.166,-0.009 -0.268,-0.015 -0.307,-0.017 l 0.042,0.148 c 0.114,0 0.206,0.013 0.273,0.039 0.068,0.027 0.123,0.071 0.165,0.135 0.043,0.063 0.08,0.15 0.112,0.263 l 1.318,4.698 c -0.14,-0.312 -0.306,-0.589 -0.497,-0.831 -0.192,-0.242 -0.423,-0.492 -0.693,-0.749 l -0.08,0.09 c 0.223,0.218 0.407,0.41 0.553,0.578 0.145,0.167 0.293,0.373 0.442,0.616 0.149,0.243 0.297,0.539 0.444,0.888 l 0.028,0.103 c 0.257,0.007 0.47,0.04 0.64,0.1 l -0.737,-2.578 c 0.223,0.523 0.443,0.903 0.661,1.141"
           style="fill:#9d9d9c;fill-opacity:1;fill-rule:nonzero;stroke:none"
           id="path1118"
           inkscape:connector-curvature="0" /><path
           d="m 411.7984,36.9338 c -0.214,-0.305 -0.386,-0.687 -0.515,-1.146 -0.128,-0.459 -0.192,-0.9 -0.192,-1.322 0,-0.408 0.134,-0.612 0.403,-0.612 0.24,0 0.468,0.152 0.681,0.457 0.213,0.306 0.384,0.687 0.513,1.145 0.128,0.458 0.192,0.899 0.192,1.323 0,0.211 -0.032,0.366 -0.098,0.465 -0.065,0.098 -0.165,0.148 -0.301,0.148 -0.241,0 -0.468,-0.153 -0.683,-0.458 m -1.067,-0.921 c 0.164,0.426 0.401,0.786 0.711,1.079 0.31,0.294 0.67,0.441 1.081,0.441 0.3,0 0.536,-0.093 0.707,-0.279 0.171,-0.186 0.256,-0.461 0.256,-0.826 0,-0.369 -0.082,-0.767 -0.246,-1.192 -0.164,-0.426 -0.4,-0.786 -0.709,-1.081 -0.309,-0.295 -0.668,-0.442 -1.079,-0.442 -0.3,0 -0.537,0.093 -0.709,0.28 -0.172,0.187 -0.258,0.463 -0.258,0.828 0,0.369 0.082,0.767 0.246,1.192"
           style="fill:#9d9d9c;fill-opacity:1;fill-rule:nonzero;stroke:none"
           id="path1120"
           inkscape:connector-curvature="0" /><path
           d="m 414.6971,34.1632 c 0,-0.126 0.055,-0.189 0.165,-0.189 0.094,0 0.183,0.054 0.265,0.163 0.083,0.109 0.17,0.295 0.262,0.556 l 0.093,0.262 0.134,0 -0.176,-0.517 c -0.169,-0.484 -0.452,-0.726 -0.846,-0.726 -0.324,0 -0.486,0.153 -0.486,0.458 0,0.135 0.033,0.312 0.097,0.53 l 1.149,3.813 c 0.023,0.085 0.035,0.151 0.035,0.197 0,0.094 -0.037,0.162 -0.11,0.204 -0.074,0.043 -0.197,0.064 -0.369,0.064 l 0.049,0.148 c 0.249,0.002 0.474,0.027 0.672,0.076 0.199,0.048 0.393,0.119 0.584,0.213 l -1.473,-5.004 c -0.03,-0.103 -0.045,-0.186 -0.045,-0.248"
           style="fill:#9d9d9c;fill-opacity:1;fill-rule:nonzero;stroke:none"
           id="path1122"
           inkscape:connector-curvature="0" /><path
           d="m 417.618,38.8905 c 0.051,0.084 0.116,0.151 0.198,0.201 0.081,0.051 0.166,0.076 0.253,0.076 0.106,0 0.192,-0.035 0.258,-0.105 0.067,-0.07 0.1,-0.158 0.1,-0.263 0,-0.092 -0.025,-0.179 -0.074,-0.26 -0.05,-0.082 -0.115,-0.148 -0.198,-0.198 -0.083,-0.051 -0.169,-0.076 -0.258,-0.076 -0.103,0 -0.188,0.035 -0.255,0.104 -0.066,0.068 -0.1,0.154 -0.1,0.258 0,0.091 0.026,0.179 0.076,0.263 m -0.23,-1.795 c 0,0.119 -0.051,0.179 -0.152,0.179 -0.108,0 -0.204,-0.057 -0.289,-0.17 -0.085,-0.114 -0.174,-0.297 -0.269,-0.549 l -0.099,-0.262 -0.131,0 0.182,0.513 c 0.097,0.269 0.223,0.456 0.379,0.564 0.156,0.108 0.321,0.162 0.496,0.162 0.312,0 0.468,-0.147 0.468,-0.44 0,-0.138 -0.039,-0.319 -0.117,-0.544 l -0.754,-2.137 c -0.037,-0.101 -0.055,-0.187 -0.055,-0.259 0,-0.119 0.056,-0.179 0.169,-0.179 0.096,0 0.186,0.054 0.271,0.161 0.085,0.106 0.178,0.293 0.279,0.559 l 0.096,0.261 0.135,0 -0.183,-0.516 c -0.091,-0.255 -0.214,-0.439 -0.368,-0.554 -0.154,-0.115 -0.32,-0.172 -0.499,-0.172 -0.328,0 -0.492,0.143 -0.492,0.43 0,0.145 0.041,0.33 0.124,0.558 l 0.757,2.137 c 0.034,0.103 0.052,0.189 0.052,0.258"
           style="fill:#9d9d9c;fill-opacity:1;fill-rule:nonzero;stroke:none"
           id="path1124"
           inkscape:connector-curvature="0" /><path
           d="m 419.4238,34.2527 c 0,-0.094 0.028,-0.164 0.084,-0.21 0.057,-0.046 0.131,-0.069 0.222,-0.069 0.117,0 0.227,0.051 0.329,0.152 0.102,0.101 0.201,0.285 0.298,0.554 l 0.099,0.275 0.135,0 -0.148,-0.444 c -0.099,-0.291 -0.227,-0.497 -0.386,-0.618 -0.158,-0.12 -0.352,-0.18 -0.581,-0.18 -0.212,0 -0.369,0.051 -0.474,0.154 -0.104,0.104 -0.156,0.247 -0.156,0.431 0,0.112 0.022,0.246 0.065,0.402 l 0.747,2.595 -0.633,0 0.034,0.142 0.64,0 0.307,1.07 c 0.259,0.007 0.47,0.04 0.633,0.1 l -0.334,-1.17 0.933,0 -0.021,-0.142 -0.95,0 -0.819,-2.884 c -0.016,-0.055 -0.024,-0.107 -0.024,-0.158"
           style="fill:#9d9d9c;fill-opacity:1;fill-rule:nonzero;stroke:none"
           id="path1126"
           inkscape:connector-curvature="0" /><path
           d="m 422.9573,37.1351 c -0.186,-0.176 -0.359,-0.41 -0.522,-0.702 -0.161,-0.293 -0.285,-0.603 -0.369,-0.931 0.463,0.163 0.783,0.314 0.96,0.454 0.174,0.136 0.31,0.3 0.406,0.494 0.096,0.194 0.145,0.404 0.145,0.632 0,0.126 -0.01,0.21 -0.028,0.253 -0.018,0.042 -0.047,0.063 -0.086,0.063 -0.151,0 -0.32,-0.087 -0.506,-0.263 m 0.32,-2.939 c -0.147,-0.144 -0.312,-0.26 -0.494,-0.35 -0.182,-0.089 -0.369,-0.134 -0.559,-0.134 -0.291,0 -0.519,0.086 -0.683,0.257 -0.165,0.171 -0.246,0.417 -0.246,0.738 0,0.355 0.104,0.758 0.313,1.206 0.209,0.449 0.491,0.831 0.848,1.146 0.357,0.316 0.744,0.474 1.162,0.474 0.151,0 0.276,-0.041 0.375,-0.121 0.099,-0.08 0.148,-0.195 0.148,-0.344 0,-0.381 -0.212,-0.713 -0.637,-0.995 -0.424,-0.282 -0.914,-0.517 -1.469,-0.705 -0.053,-0.234 -0.08,-0.462 -0.08,-0.682 0,-0.452 0.162,-0.678 0.486,-0.678 0.401,0 0.764,0.235 1.087,0.706 l 0.114,-0.055 c -0.096,-0.166 -0.218,-0.32 -0.365,-0.463"
           style="fill:#9d9d9c;fill-opacity:1;fill-rule:nonzero;stroke:none"
           id="path1128"
           inkscape:connector-curvature="0" /><path
           d="m 424.8524,33.4095 c 0.131,0.161 0.203,0.321 0.217,0.482 -0.135,-0.119 -0.258,-0.179 -0.368,-0.179 -0.083,0 -0.148,0.022 -0.195,0.067 -0.047,0.045 -0.07,0.105 -0.07,0.181 0,0.098 0.031,0.199 0.094,0.301 0.063,0.102 0.145,0.186 0.246,0.253 0.101,0.066 0.203,0.1 0.307,0.1 0.103,0 0.18,-0.041 0.232,-0.121 0.052,-0.08 0.077,-0.178 0.077,-0.292 0,-0.163 -0.041,-0.327 -0.123,-0.492 -0.083,-0.166 -0.202,-0.321 -0.358,-0.467 -0.157,-0.145 -0.341,-0.27 -0.555,-0.373 l -0.034,0.096 c 0.223,0.136 0.399,0.284 0.53,0.444"
           style="fill:#9d9d9c;fill-opacity:1;fill-rule:nonzero;stroke:none"
           id="path1130"
           inkscape:connector-curvature="0" /><path
           d="m 431.1297,37.2832 c -0.068,0.059 -0.144,0.088 -0.229,0.088 -0.284,0 -0.554,-0.152 -0.809,-0.456 -0.254,-0.304 -0.459,-0.678 -0.614,-1.122 -0.155,-0.444 -0.232,-0.858 -0.232,-1.241 0,-0.408 0.103,-0.613 0.31,-0.613 0.135,0 0.294,0.096 0.476,0.288 0.183,0.191 0.363,0.448 0.54,0.771 0.178,0.322 0.326,0.668 0.443,1.037 l 0.261,0.978 c -0.029,0.122 -0.078,0.212 -0.146,0.27 m 0.866,-2.328 -0.165,-0.517 c -0.081,-0.261 -0.195,-0.448 -0.343,-0.559 -0.148,-0.111 -0.306,-0.167 -0.473,-0.167 -0.145,0 -0.255,0.038 -0.33,0.114 -0.076,0.076 -0.114,0.185 -0.114,0.327 0,0.126 0.03,0.308 0.089,0.547 l 0.093,0.354 c -0.222,-0.472 -0.447,-0.814 -0.674,-1.025 -0.227,-0.211 -0.47,-0.317 -0.726,-0.317 -0.23,0 -0.409,0.078 -0.539,0.234 -0.13,0.156 -0.194,0.389 -0.194,0.699 0,0.388 0.101,0.809 0.306,1.265 0.204,0.455 0.48,0.839 0.829,1.153 0.349,0.313 0.729,0.47 1.139,0.47 0.092,0 0.178,-0.03 0.259,-0.09 0.08,-0.06 0.137,-0.142 0.172,-0.248 l 0.351,1.318 c 0.02,0.074 0.031,0.137 0.031,0.19 0,0.094 -0.037,0.163 -0.11,0.208 -0.074,0.045 -0.198,0.067 -0.372,0.067 l 0.045,0.148 c 0.25,0.002 0.473,0.027 0.671,0.076 0.197,0.048 0.389,0.119 0.574,0.213 l -1.38,-5.004 c -0.027,-0.094 -0.041,-0.174 -0.041,-0.241 0,-0.131 0.056,-0.196 0.169,-0.196 0.094,0 0.18,0.054 0.259,0.163 0.08,0.109 0.164,0.295 0.253,0.556 l 0.086,0.262 0.135,0 z"
           style="fill:#9d9d9c;fill-opacity:1;fill-rule:nonzero;stroke:none"
           id="path1132"
           inkscape:connector-curvature="0" /><path
           d="m 435.2468,35.3575 c 0.188,0.395 0.32,0.784 0.396,1.167 -0.145,0.075 -0.27,0.168 -0.377,0.278 -0.107,0.111 -0.16,0.235 -0.16,0.372 0,0.113 0.033,0.201 0.1,0.264 0.066,0.063 0.152,0.094 0.258,0.094 0.245,0 0.368,-0.19 0.368,-0.571 0,-0.301 -0.066,-0.639 -0.2,-1.015 -0.133,-0.377 -0.306,-0.749 -0.518,-1.119 -0.212,-0.369 -0.435,-0.701 -0.669,-0.995 -0.44,-0.548 -0.904,-0.938 -1.39,-1.17 -0.246,-0.117 -0.45,-0.175 -0.613,-0.175 -0.101,0 -0.185,0.025 -0.253,0.075 -0.068,0.051 -0.102,0.122 -0.102,0.214 0,0.096 0.038,0.173 0.114,0.23 0.076,0.058 0.165,0.086 0.268,0.086 0.099,0 0.194,-0.024 0.286,-0.072 0.092,-0.048 0.192,-0.116 0.3,-0.203 0.369,0.195 0.721,0.476 1.056,0.843 l -0.519,3.16 c -0.026,0.144 -0.055,0.245 -0.088,0.303 -0.034,0.057 -0.08,0.086 -0.14,0.086 -0.059,0 -0.121,-0.046 -0.186,-0.138 -0.064,-0.092 -0.141,-0.262 -0.23,-0.509 l -0.09,-0.262 -0.134,0 0.176,0.513 c 0.165,0.479 0.436,0.719 0.812,0.719 0.098,0 0.181,-0.019 0.248,-0.058 0.066,-0.039 0.12,-0.106 0.162,-0.2 0.041,-0.094 0.073,-0.224 0.096,-0.389 l 0.361,-2.65 c 0.257,0.353 0.48,0.727 0.668,1.122"
           style="fill:#9d9d9c;fill-opacity:1;fill-rule:nonzero;stroke:none"
           id="path1134"
           inkscape:connector-curvature="0" /><path
           d="m 439.7955,34.4386 c -0.165,-0.484 -0.45,-0.726 -0.854,-0.726 -0.211,0 -0.359,0.069 -0.443,0.206 -0.037,0.06 -0.056,0.137 -0.056,0.231 0,0.133 0.041,0.316 0.121,0.551 l 0.668,2.016 c 0.048,0.14 0.072,0.256 0.072,0.348 0,0.163 -0.076,0.244 -0.227,0.244 -0.182,0 -0.386,-0.131 -0.613,-0.394 -0.227,-0.262 -0.45,-0.623 -0.67,-1.082 -0.219,-0.459 -0.41,-0.968 -0.572,-1.528 l -0.124,-0.492 -0.613,0 0.843,3.025 c 0.035,0.112 0.052,0.201 0.052,0.265 0,0.115 -0.052,0.172 -0.155,0.172 -0.071,0 -0.135,-0.022 -0.191,-0.067 -0.056,-0.045 -0.112,-0.119 -0.169,-0.222 -0.056,-0.103 -0.117,-0.247 -0.184,-0.43 l -0.093,-0.262 -0.134,0 0.179,0.513 c 0.165,0.484 0.444,0.726 0.837,0.726 0.277,0 0.416,-0.139 0.416,-0.416 0,-0.127 -0.032,-0.316 -0.096,-0.568 l -0.245,-0.964 c 0.202,0.477 0.396,0.858 0.584,1.143 0.186,0.284 0.375,0.49 0.566,0.616 0.19,0.126 0.395,0.189 0.616,0.189 0.378,0 0.568,-0.177 0.568,-0.53 0,-0.14 -0.035,-0.318 -0.104,-0.533 l -0.685,-2.058 c -0.036,-0.111 -0.054,-0.199 -0.054,-0.266 0,-0.114 0.056,-0.172 0.168,-0.172 0.097,0 0.188,0.054 0.275,0.161 0.087,0.106 0.177,0.292 0.269,0.559 l 0.093,0.261 0.131,0 -0.176,-0.516 z"
           style="fill:#9d9d9c;fill-opacity:1;fill-rule:nonzero;stroke:none"
           id="path1136"
           inkscape:connector-curvature="0" /><path
           d="m 443.0811,36.7858 c 0,0.188 -0.034,0.337 -0.101,0.448 -0.068,0.11 -0.164,0.165 -0.288,0.165 -0.2,0 -0.412,-0.156 -0.638,-0.467 -0.226,-0.31 -0.416,-0.696 -0.568,-1.154 -0.153,-0.459 -0.229,-0.891 -0.229,-1.295 0,-0.195 0.021,-0.334 0.062,-0.418 0.041,-0.083 0.102,-0.125 0.182,-0.125 0.131,0 0.288,0.1 0.47,0.301 0.183,0.201 0.362,0.468 0.537,0.804 0.176,0.335 0.321,0.692 0.435,1.073 l 0.131,0.513 c 0.005,0.074 0.007,0.125 0.007,0.155 m 0.833,-1.824 -0.176,-0.516 c -0.096,-0.262 -0.216,-0.449 -0.361,-0.563 -0.144,-0.114 -0.295,-0.17 -0.451,-0.17 -0.087,0 -0.165,0.016 -0.232,0.05 -0.068,0.033 -0.12,0.078 -0.157,0.135 -0.039,0.069 -0.058,0.152 -0.058,0.248 0,0.069 0.008,0.141 0.024,0.215 0.016,0.075 0.033,0.146 0.051,0.214 0.019,0.068 0.03,0.112 0.035,0.132 l 0.127,0.513 c -0.225,-0.528 -0.454,-0.911 -0.686,-1.149 -0.233,-0.239 -0.477,-0.358 -0.732,-0.358 -0.216,0 -0.38,0.077 -0.493,0.232 -0.114,0.155 -0.171,0.362 -0.171,0.621 0,0.381 0.102,0.807 0.304,1.277 0.204,0.471 0.466,0.87 0.789,1.198 0.322,0.328 0.652,0.492 0.989,0.492 0.124,0 0.227,-0.046 0.308,-0.138 0.082,-0.092 0.129,-0.221 0.143,-0.389 l 0.11,0.431 c 0.262,0.006 0.479,0.039 0.651,0.096 l -0.881,-3.115 c -0.035,-0.124 -0.052,-0.211 -0.052,-0.261 0,-0.117 0.053,-0.176 0.158,-0.176 0.207,0 0.387,0.24 0.541,0.719 l 0.086,0.262 0.134,0 z"
           style="fill:#9d9d9c;fill-opacity:1;fill-rule:nonzero;stroke:none"
           id="path1138"
           inkscape:connector-curvature="0" /><path
           d="m 449.6779,34.4386 c -0.165,-0.484 -0.45,-0.726 -0.854,-0.726 -0.208,0 -0.354,0.064 -0.437,0.192 -0.039,0.062 -0.058,0.143 -0.058,0.241 0,0.129 0.039,0.314 0.117,0.555 l 0.667,2.016 c 0.049,0.154 0.073,0.278 0.073,0.372 0,0.147 -0.052,0.22 -0.155,0.22 -0.181,0 -0.38,-0.142 -0.594,-0.426 -0.215,-0.285 -0.432,-0.679 -0.652,-1.184 -0.22,-0.505 -0.433,-1.087 -0.637,-1.745 l 0.007,0.034 -0.048,-0.175 -0.637,0 0.881,2.904 c 0.048,0.15 0.073,0.27 0.073,0.362 0,0.154 -0.066,0.23 -0.197,0.23 -0.172,0 -0.364,-0.134 -0.576,-0.402 -0.213,-0.269 -0.422,-0.635 -0.63,-1.1 -0.208,-0.465 -0.391,-0.978 -0.549,-1.54 l -0.113,-0.454 -0.613,0 0.843,3.025 c 0.035,0.117 0.052,0.203 0.052,0.258 0,0.119 -0.05,0.179 -0.148,0.179 -0.106,0 -0.202,-0.056 -0.288,-0.167 -0.086,-0.111 -0.173,-0.295 -0.263,-0.552 l -0.093,-0.262 -0.134,0 0.179,0.513 c 0.165,0.484 0.448,0.726 0.85,0.726 0.273,0 0.41,-0.141 0.41,-0.423 0,-0.14 -0.035,-0.327 -0.104,-0.561 l -0.223,-0.888 c 0.188,0.461 0.368,0.828 0.54,1.101 0.172,0.273 0.346,0.47 0.521,0.59 0.176,0.121 0.366,0.181 0.57,0.181 0.307,0 0.461,-0.165 0.461,-0.495 0,-0.15 -0.031,-0.339 -0.093,-0.568 l -0.251,-0.933 c 0.197,0.491 0.382,0.88 0.556,1.168 0.173,0.288 0.35,0.498 0.53,0.63 0.18,0.132 0.38,0.198 0.6,0.198 0.175,0 0.301,-0.048 0.379,-0.143 0.078,-0.095 0.117,-0.223 0.117,-0.383 0,-0.159 -0.033,-0.338 -0.1,-0.537 l -0.685,-2.058 c -0.034,-0.111 -0.051,-0.2 -0.051,-0.269 0,-0.112 0.055,-0.169 0.165,-0.169 0.096,0 0.188,0.054 0.275,0.161 0.087,0.106 0.177,0.292 0.269,0.559 l 0.093,0.261 0.13,0 -0.175,-0.516 z"
           style="fill:#9d9d9c;fill-opacity:1;fill-rule:nonzero;stroke:none"
           id="path1140"
           inkscape:connector-curvature="0" /><path
           d="m 451.8519,38.8905 c 0.051,0.084 0.117,0.151 0.198,0.201 0.081,0.051 0.166,0.076 0.253,0.076 0.106,0 0.192,-0.035 0.258,-0.105 0.067,-0.07 0.1,-0.158 0.1,-0.263 0,-0.092 -0.025,-0.179 -0.074,-0.26 -0.05,-0.082 -0.115,-0.148 -0.198,-0.198 -0.083,-0.051 -0.169,-0.076 -0.258,-0.076 -0.103,0 -0.188,0.035 -0.255,0.104 -0.066,0.068 -0.1,0.154 -0.1,0.258 0,0.091 0.026,0.179 0.076,0.263 m -0.23,-1.795 c 0,0.119 -0.051,0.179 -0.152,0.179 -0.108,0 -0.204,-0.057 -0.289,-0.17 -0.085,-0.114 -0.174,-0.297 -0.269,-0.549 l -0.099,-0.262 -0.131,0 0.182,0.513 c 0.097,0.269 0.223,0.456 0.379,0.564 0.156,0.108 0.321,0.162 0.496,0.162 0.312,0 0.468,-0.147 0.468,-0.44 0,-0.138 -0.039,-0.319 -0.117,-0.544 l -0.754,-2.137 c -0.037,-0.101 -0.055,-0.187 -0.055,-0.259 0,-0.119 0.056,-0.179 0.169,-0.179 0.096,0 0.186,0.054 0.271,0.161 0.085,0.106 0.178,0.293 0.279,0.559 l 0.096,0.261 0.135,0 -0.183,-0.516 c -0.091,-0.255 -0.214,-0.439 -0.368,-0.554 -0.154,-0.115 -0.32,-0.172 -0.499,-0.172 -0.328,0 -0.492,0.143 -0.492,0.43 0,0.145 0.041,0.33 0.124,0.558 l 0.757,2.137 c 0.034,0.103 0.052,0.189 0.052,0.258"
           style="fill:#9d9d9c;fill-opacity:1;fill-rule:nonzero;stroke:none"
           id="path1142"
           inkscape:connector-curvature="0" /><path
           d="m 455.3201,37.2815 c -0.08,0.06 -0.178,0.089 -0.293,0.089 -0.25,0 -0.488,-0.156 -0.714,-0.468 -0.226,-0.312 -0.407,-0.691 -0.545,-1.139 -0.138,-0.447 -0.207,-0.851 -0.207,-1.211 0,-0.205 0.03,-0.358 0.088,-0.46 0.059,-0.102 0.14,-0.153 0.243,-0.153 0.128,0 0.277,0.088 0.447,0.263 0.17,0.176 0.336,0.41 0.498,0.702 0.161,0.293 0.294,0.607 0.397,0.942 l 0.296,1.139 c -0.06,0.138 -0.13,0.236 -0.21,0.296 m -0.22,-4.271 c 0,-0.218 0.152,-0.327 0.458,-0.327 l -0.045,-0.148 c -0.055,0.002 -0.179,0.008 -0.372,0.017 -0.193,0.009 -0.383,0.014 -0.571,0.014 -0.152,0 -0.31,-0.005 -0.475,-0.014 -0.165,-0.009 -0.267,-0.015 -0.306,-0.017 l 0.041,0.148 c 0.144,0 0.261,0.013 0.351,0.039 0.089,0.027 0.16,0.071 0.213,0.135 0.053,0.063 0.095,0.15 0.128,0.263 l 0.485,1.855 c -0.211,-0.45 -0.424,-0.773 -0.639,-0.969 -0.214,-0.196 -0.441,-0.294 -0.679,-0.294 -0.227,0 -0.407,0.084 -0.537,0.253 -0.131,0.169 -0.196,0.416 -0.196,0.742 0,0.378 0.084,0.789 0.252,1.233 0.169,0.444 0.411,0.821 0.725,1.129 0.314,0.309 0.677,0.463 1.088,0.463 0.139,0 0.263,-0.041 0.369,-0.124 0.107,-0.082 0.181,-0.197 0.223,-0.344 l 0.598,0.482 0.114,-0.048 c -0.062,-0.119 -0.111,-0.256 -0.148,-0.41 l -1.05,-3.896 c -0.018,-0.062 -0.027,-0.123 -0.027,-0.182"
           style="fill:#9d9d9c;fill-opacity:1;fill-rule:nonzero;stroke:none"
           id="path1144"
           inkscape:connector-curvature="0" /><path
           d="m 460.2992,34.9548 -0.175,-0.516 c -0.17,-0.484 -0.455,-0.726 -0.854,-0.726 -0.078,0 -0.15,0.016 -0.215,0.05 -0.066,0.033 -0.114,0.08 -0.146,0.142 -0.028,0.058 -0.042,0.13 -0.042,0.217 0,0.124 0.033,0.317 0.1,0.578 l 0.224,0.885 c -0.188,-0.454 -0.37,-0.819 -0.546,-1.093 -0.175,-0.274 -0.352,-0.473 -0.53,-0.595 -0.178,-0.123 -0.369,-0.184 -0.573,-0.184 -0.397,0 -0.595,0.181 -0.595,0.543 0,0.147 0.034,0.322 0.103,0.523 l 0.681,2.059 c 0.037,0.114 0.055,0.203 0.055,0.265 0,0.114 -0.055,0.172 -0.165,0.172 -0.096,0 -0.188,-0.054 -0.275,-0.16 -0.087,-0.107 -0.177,-0.293 -0.268,-0.56 l -0.093,-0.261 -0.135,0 0.179,0.513 c 0.166,0.484 0.449,0.726 0.85,0.726 0.331,0 0.496,-0.146 0.496,-0.437 0,-0.129 -0.038,-0.311 -0.113,-0.548 l -0.672,-2.016 c -0.046,-0.138 -0.069,-0.255 -0.069,-0.351 0,-0.161 0.075,-0.241 0.224,-0.241 0.179,0 0.378,0.131 0.597,0.392 0.219,0.262 0.435,0.627 0.647,1.095 0.213,0.468 0.399,0.998 0.56,1.59 l 0.106,0.42 c 0.269,0.006 0.483,0.039 0.644,0.096 l -0.874,-3.122 c -0.035,-0.119 -0.052,-0.211 -0.052,-0.275 0,-0.108 0.051,-0.162 0.152,-0.162 0.103,0 0.197,0.056 0.283,0.167 0.087,0.111 0.174,0.295 0.264,0.552 l 0.093,0.262 0.134,0 z"
           style="fill:#9d9d9c;fill-opacity:1;fill-rule:nonzero;stroke:none"
           id="path1146"
           inkscape:connector-curvature="0" /><path
           d="m 462.6384,37.1351 c -0.186,-0.176 -0.36,-0.41 -0.522,-0.702 -0.161,-0.293 -0.285,-0.603 -0.369,-0.931 0.463,0.163 0.783,0.314 0.96,0.454 0.174,0.136 0.31,0.3 0.406,0.494 0.096,0.194 0.144,0.404 0.144,0.632 0,0.126 -0.009,0.21 -0.027,0.253 -0.018,0.042 -0.047,0.063 -0.086,0.063 -0.152,0 -0.32,-0.087 -0.506,-0.263 m 0.32,-2.939 c -0.147,-0.144 -0.312,-0.26 -0.494,-0.35 -0.182,-0.089 -0.369,-0.134 -0.559,-0.134 -0.292,0 -0.519,0.086 -0.684,0.257 -0.164,0.171 -0.246,0.417 -0.246,0.738 0,0.355 0.105,0.758 0.314,1.206 0.209,0.449 0.491,0.831 0.848,1.146 0.357,0.316 0.744,0.474 1.162,0.474 0.151,0 0.276,-0.041 0.375,-0.121 0.099,-0.08 0.148,-0.195 0.148,-0.344 0,-0.381 -0.212,-0.713 -0.637,-0.995 -0.424,-0.282 -0.914,-0.517 -1.469,-0.705 -0.053,-0.234 -0.08,-0.462 -0.08,-0.682 0,-0.452 0.162,-0.678 0.486,-0.678 0.401,0 0.764,0.235 1.087,0.706 l 0.114,-0.055 c -0.096,-0.166 -0.218,-0.32 -0.365,-0.463"
           style="fill:#9d9d9c;fill-opacity:1;fill-rule:nonzero;stroke:none"
           id="path1148"
           inkscape:connector-curvature="0" /><path
           d="m 469.1584,34.8549 c -0.218,0 -0.399,0.054 -0.544,0.162 -0.144,0.108 -0.217,0.284 -0.217,0.53 0,0.273 0.098,0.499 0.293,0.678 0.195,0.179 0.488,0.341 0.878,0.485 0.107,0.039 0.286,0.103 0.535,0.191 0.249,0.089 0.487,0.176 0.714,0.262 0.227,0.086 0.418,0.167 0.574,0.242 0.232,0.113 0.411,0.23 0.538,0.353 0.126,0.123 0.189,0.267 0.189,0.432 0,0.112 -0.031,0.215 -0.091,0.308 -0.061,0.093 -0.145,0.166 -0.252,0.219 -0.106,0.053 -0.224,0.079 -0.353,0.079 -0.123,0 -0.199,-0.021 -0.227,-0.062 0.049,-0.028 0.085,-0.065 0.11,-0.114 0.026,-0.048 0.038,-0.099 0.038,-0.154 0,-0.072 -0.021,-0.138 -0.065,-0.2 -0.043,-0.062 -0.101,-0.112 -0.172,-0.148 -0.071,-0.037 -0.147,-0.055 -0.227,-0.055 -0.094,0 -0.171,0.026 -0.229,0.079 -0.059,0.053 -0.088,0.125 -0.088,0.217 0,0.096 0.033,0.183 0.098,0.26 0.066,0.077 0.15,0.138 0.253,0.184 0.156,0.066 0.328,0.1 0.517,0.1 0.27,0 0.485,-0.067 0.643,-0.2 0.158,-0.133 0.238,-0.335 0.238,-0.606 0,-0.238 -0.069,-0.45 -0.205,-0.633 -0.137,-0.184 -0.355,-0.351 -0.656,-0.503 -0.211,-0.103 -0.586,-0.253 -1.125,-0.451 0.342,-0.286 0.512,-0.638 0.512,-1.056 0,-0.312 -0.093,-0.601 -0.28,-0.867 -0.187,-0.267 -0.458,-0.479 -0.812,-0.637 -0.355,-0.158 -0.773,-0.238 -1.255,-0.238 -0.413,0 -0.772,0.06 -1.077,0.179 -0.305,0.12 -0.54,0.291 -0.706,0.513 -0.165,0.223 -0.247,0.488 -0.247,0.795 0,0.276 0.065,0.534 0.196,0.775 0.131,0.241 0.311,0.447 0.54,0.619 0.23,0.172 0.489,0.298 0.778,0.379 -0.158,0.085 -0.28,0.198 -0.365,0.339 -0.085,0.141 -0.127,0.291 -0.127,0.449 0,0.204 0.069,0.382 0.208,0.533 0.139,0.152 0.316,0.268 0.532,0.348 0.215,0.08 0.433,0.12 0.654,0.12 0.174,0 0.327,-0.025 0.458,-0.077 0.13,-0.052 0.231,-0.123 0.302,-0.215 0.071,-0.092 0.107,-0.198 0.107,-0.32 0,-0.115 -0.029,-0.212 -0.088,-0.291 -0.058,-0.079 -0.134,-0.139 -0.225,-0.179 -0.092,-0.04 -0.187,-0.06 -0.286,-0.06 l 0.014,0.127 c 0.131,0 0.236,0.035 0.316,0.103 0.081,0.069 0.121,0.163 0.121,0.283 0,0.156 -0.064,0.281 -0.193,0.375 -0.128,0.094 -0.291,0.141 -0.488,0.141 -0.191,0 -0.362,-0.045 -0.513,-0.136 -0.152,-0.091 -0.27,-0.216 -0.355,-0.375 -0.085,-0.16 -0.127,-0.339 -0.127,-0.539 0,-0.218 0.052,-0.413 0.155,-0.585 0.167,0.028 0.315,0.041 0.444,0.041 0.17,0 0.254,-0.049 0.254,-0.148 0,-0.05 -0.021,-0.087 -0.065,-0.111 -0.044,-0.025 -0.095,-0.037 -0.155,-0.037 -0.117,0 -0.279,0.052 -0.485,0.155 -0.214,-0.062 -0.402,-0.161 -0.565,-0.299 -0.163,-0.138 -0.289,-0.301 -0.38,-0.489 -0.091,-0.188 -0.136,-0.388 -0.136,-0.599 0,-0.275 0.076,-0.51 0.227,-0.704 0.152,-0.193 0.36,-0.34 0.627,-0.438 0.266,-0.099 0.571,-0.148 0.915,-0.148 0.365,0 0.695,0.053 0.99,0.161 0.295,0.108 0.527,0.262 0.697,0.462 0.169,0.199 0.254,0.429 0.254,0.688 0,0.172 -0.039,0.341 -0.118,0.506 -0.079,0.165 -0.198,0.305 -0.357,0.42 -0.482,-0.177 -0.78,-0.288 -0.895,-0.334 -0.211,-0.083 -0.387,-0.177 -0.528,-0.284 -0.141,-0.107 -0.211,-0.245 -0.211,-0.415 0,-0.144 0.057,-0.259 0.173,-0.344 0.116,-0.085 0.258,-0.127 0.425,-0.127 0.186,0 0.338,0.046 0.455,0.137 0.117,0.092 0.205,0.185 0.265,0.279 l 0.093,-0.065 c -0.189,-0.31 -0.468,-0.465 -0.84,-0.465"
           style="fill:#9d9d9c;fill-opacity:1;fill-rule:nonzero;stroke:none"
           id="path1150"
           inkscape:connector-curvature="0" /><path
           d="m 475.7968,36.1371 c -0.212,-0.465 -0.339,-0.941 -0.38,-1.43 -0.005,-0.078 -0.007,-0.133 -0.007,-0.165 0,-0.397 0.103,-0.596 0.309,-0.596 0.345,0 0.655,0.144 0.93,0.431 0.275,0.286 0.493,0.63 0.654,1.03 0.16,0.401 0.249,0.759 0.265,1.076 -0.156,0.078 -0.285,0.182 -0.386,0.311 -0.101,0.13 -0.144,0.28 -0.131,0.449 0.007,0.101 0.042,0.176 0.104,0.224 0.062,0.048 0.13,0.072 0.206,0.072 0.133,0 0.233,-0.063 0.3,-0.191 0.066,-0.127 0.1,-0.301 0.1,-0.521 0,-0.076 -0.006,-0.169 -0.018,-0.279 -0.057,-0.486 -0.18,-0.945 -0.37,-1.376 -0.189,-0.432 -0.442,-0.783 -0.759,-1.053 -0.316,-0.271 -0.682,-0.407 -1.098,-0.407 -0.277,0 -0.481,0.077 -0.612,0.229 -0.131,0.153 -0.196,0.343 -0.196,0.57 l 0.003,0.076 c 0.028,0.387 0.189,0.818 0.484,1.292 0.294,0.474 0.678,0.937 1.151,1.389 -0.085,-0.033 -0.2,-0.093 -0.346,-0.183 -0.146,-0.089 -0.261,-0.156 -0.346,-0.199 -0.085,-0.044 -0.164,-0.066 -0.237,-0.066 -0.042,0 -0.08,0.008 -0.114,0.024 -0.034,0.016 -0.085,0.046 -0.153,0.09 -0.068,0.043 -0.127,0.065 -0.177,0.065 -0.074,0 -0.135,-0.031 -0.184,-0.094 -0.05,-0.064 -0.103,-0.178 -0.16,-0.343 l -0.08,-0.261 -0.134,0 0.155,0.512 c 0.131,0.48 0.352,0.72 0.664,0.72 0.09,0 0.175,-0.031 0.257,-0.092 0.081,-0.06 0.146,-0.106 0.196,-0.137 0.049,-0.031 0.112,-0.047 0.188,-0.047 0.234,0 0.431,0.074 0.591,0.221 l 0.073,0.134 0.148,-0.073 c -0.381,-0.47 -0.678,-0.937 -0.89,-1.402"
           style="fill:#9d9d9c;fill-opacity:1;fill-rule:nonzero;stroke:none"
           id="path1152"
           inkscape:connector-curvature="0" /><path
           d="m 479.9789,37.1351 c -0.186,-0.176 -0.359,-0.41 -0.521,-0.702 -0.162,-0.293 -0.285,-0.603 -0.37,-0.931 0.463,0.163 0.783,0.314 0.96,0.454 0.174,0.136 0.31,0.3 0.406,0.494 0.096,0.194 0.145,0.404 0.145,0.632 0,0.126 -0.01,0.21 -0.028,0.253 -0.018,0.042 -0.047,0.063 -0.086,0.063 -0.151,0 -0.32,-0.087 -0.506,-0.263 m 0.32,-2.939 c -0.147,-0.144 -0.312,-0.26 -0.494,-0.35 -0.182,-0.089 -0.369,-0.134 -0.559,-0.134 -0.291,0 -0.519,0.086 -0.683,0.257 -0.164,0.171 -0.246,0.417 -0.246,0.738 0,0.355 0.104,0.758 0.313,1.206 0.209,0.449 0.491,0.831 0.848,1.146 0.357,0.316 0.744,0.474 1.162,0.474 0.151,0 0.276,-0.041 0.375,-0.121 0.099,-0.08 0.148,-0.195 0.148,-0.344 0,-0.381 -0.212,-0.713 -0.637,-0.995 -0.424,-0.282 -0.914,-0.517 -1.469,-0.705 -0.053,-0.234 -0.079,-0.462 -0.079,-0.682 0,-0.452 0.161,-0.678 0.485,-0.678 0.401,0 0.764,0.235 1.087,0.706 l 0.114,-0.055 c -0.096,-0.166 -0.218,-0.32 -0.365,-0.463"
           style="fill:#9d9d9c;fill-opacity:1;fill-rule:nonzero;stroke:none"
           id="path1154"
           inkscape:connector-curvature="0" /><path
           d="m 483.3075,36.7548 c 0.153,0.273 0.308,0.471 0.465,0.594 0.157,0.123 0.328,0.184 0.514,0.184 0.129,0 0.23,-0.037 0.305,-0.112 0.074,-0.075 0.112,-0.17 0.112,-0.287 0,-0.092 -0.023,-0.177 -0.069,-0.255 -0.046,-0.078 -0.107,-0.14 -0.183,-0.186 -0.075,-0.046 -0.157,-0.069 -0.244,-0.069 -0.082,0 -0.15,0.023 -0.201,0.067 -0.052,0.045 -0.078,0.108 -0.078,0.188 0,0.211 0.106,0.361 0.317,0.451 -0.018,0.018 -0.045,0.027 -0.079,0.027 -0.168,0 -0.347,-0.123 -0.537,-0.371 -0.19,-0.248 -0.382,-0.594 -0.575,-1.04 -0.192,-0.445 -0.376,-0.96 -0.551,-1.545 l -0.147,-0.589 -0.613,0 0.843,3.026 c 0.034,0.117 0.052,0.209 0.052,0.275 0,0.108 -0.049,0.162 -0.148,0.162 -0.106,0 -0.202,-0.056 -0.288,-0.167 -0.086,-0.111 -0.173,-0.295 -0.263,-0.552 l -0.093,-0.262 -0.134,0 0.179,0.513 c 0.165,0.484 0.448,0.726 0.85,0.726 0.271,0 0.406,-0.137 0.406,-0.41 0,-0.075 -0.008,-0.154 -0.024,-0.237 -0.016,-0.083 -0.041,-0.195 -0.076,-0.338 l -0.227,-0.894 c 0.172,0.461 0.335,0.828 0.487,1.101"
           style="fill:#9d9d9c;fill-opacity:1;fill-rule:nonzero;stroke:none"
           id="path1156"
           inkscape:connector-curvature="0" /><path
           d="m 485.58,34.2527 c 0,-0.094 0.028,-0.164 0.085,-0.21 0.056,-0.046 0.129,-0.069 0.221,-0.069 0.117,0 0.227,0.051 0.329,0.152 0.102,0.101 0.201,0.285 0.298,0.554 l 0.1,0.275 0.134,0 -0.148,-0.444 c -0.099,-0.291 -0.227,-0.497 -0.386,-0.618 -0.158,-0.12 -0.352,-0.18 -0.581,-0.18 -0.212,0 -0.369,0.051 -0.474,0.154 -0.104,0.104 -0.156,0.247 -0.156,0.431 0,0.112 0.022,0.246 0.065,0.402 l 0.747,2.595 -0.633,0 0.034,0.142 0.64,0 0.307,1.07 c 0.259,0.007 0.47,0.04 0.633,0.1 l -0.334,-1.17 0.933,0 -0.021,-0.142 -0.95,0 -0.819,-2.884 c -0.016,-0.055 -0.024,-0.107 -0.024,-0.158"
           style="fill:#9d9d9c;fill-opacity:1;fill-rule:nonzero;stroke:none"
           id="path1158"
           inkscape:connector-curvature="0" /><path
           d="m 489.1135,37.1351 c -0.186,-0.176 -0.359,-0.41 -0.521,-0.702 -0.162,-0.293 -0.285,-0.603 -0.37,-0.931 0.463,0.163 0.783,0.314 0.96,0.454 0.174,0.136 0.31,0.3 0.406,0.494 0.096,0.194 0.145,0.404 0.145,0.632 0,0.126 -0.01,0.21 -0.028,0.253 -0.018,0.042 -0.047,0.063 -0.086,0.063 -0.151,0 -0.32,-0.087 -0.506,-0.263 m 0.32,-2.939 c -0.147,-0.144 -0.312,-0.26 -0.494,-0.35 -0.182,-0.089 -0.369,-0.134 -0.559,-0.134 -0.291,0 -0.519,0.086 -0.683,0.257 -0.164,0.171 -0.246,0.417 -0.246,0.738 0,0.355 0.104,0.758 0.313,1.206 0.209,0.449 0.491,0.831 0.848,1.146 0.357,0.316 0.744,0.474 1.162,0.474 0.151,0 0.276,-0.041 0.375,-0.121 0.099,-0.08 0.148,-0.195 0.148,-0.344 0,-0.381 -0.212,-0.713 -0.637,-0.995 -0.424,-0.282 -0.914,-0.517 -1.469,-0.705 -0.053,-0.234 -0.079,-0.462 -0.079,-0.682 0,-0.452 0.161,-0.678 0.485,-0.678 0.401,0 0.764,0.235 1.087,0.706 l 0.114,-0.055 c -0.096,-0.166 -0.218,-0.32 -0.365,-0.463"
           style="fill:#9d9d9c;fill-opacity:1;fill-rule:nonzero;stroke:none"
           id="path1160"
           inkscape:connector-curvature="0" /></g></g></g></svg>